<?xml version="1.0" standalone="no"?>
<!DOCTYPE svg PUBLIC "-//W3C//DTD SVG 20010904//EN"
 "http://www.w3.org/TR/2001/REC-SVG-20010904/DTD/svg10.dtd">
<svg version="1.0" xmlns="http://www.w3.org/2000/svg"
 width="300.000000pt" height="210.000000pt" viewBox="0 0 300.000000 210.000000"
 preserveAspectRatio="xMidYMid meet">
<metadata>
Created by potrace 1.10, written by Peter Selinger 2001-2011
</metadata>
<g transform="translate(0.000000,210.000000) scale(0.100000,-0.100000)"
fill="#000000" stroke="none">
<path d="M1338 1957 c-60 -9 -68 -13 -68 -32 0 -18 4 -21 25 -17 l25 4 0 -82
c0 -79 1 -81 23 -78 21 3 22 8 22 85 0 81 0 82 28 87 19 4 27 12 27 26 0 11
-3 19 -7 18 -5 0 -38 -6 -75 -11z"/>
<path d="M1157 1923 c-14 -23 -63 -213 -55 -213 24 0 48 23 48 45 0 14 6 25
13 25 6 0 22 3 34 6 17 5 22 1 25 -18 2 -17 10 -24 32 -26 24 -3 28 -1 21 15
-4 10 -18 53 -32 96 -22 73 -25 77 -53 77 -16 0 -31 -3 -33 -7z m32 -107 c-27
-13 -30 -5 -17 40 l11 39 12 -35 c11 -31 10 -36 -6 -44z"/>
<path d="M2711 1891 c-32 -32 -46 -59 -69 -133 -17 -51 -33 -112 -37 -134 -3
-23 -16 -51 -28 -62 -39 -36 -163 -110 -267 -161 -116 -57 -109 -57 -270 -4
-172 57 -280 55 -280 -4 0 -41 73 -155 146 -228 35 -36 64 -70 64 -76 0 -7 25
-36 55 -65 39 -38 55 -61 55 -80 0 -43 58 -148 117 -213 75 -83 173 -132 278
-139 l76 -5 23 -46 c68 -133 203 -277 389 -416 l37 -27 0 29 c0 21 -7 33 -22
40 -86 39 -304 268 -358 376 -16 33 -58 76 -74 78 -6 1 -20 3 -31 4 -166 18
-260 74 -342 202 -20 31 -44 83 -54 115 -12 41 -32 75 -68 116 -28 31 -83 94
-123 138 -80 90 -125 163 -115 188 10 27 77 19 209 -23 68 -22 134 -41 148
-42 36 -4 110 11 110 22 0 5 5 9 11 9 22 0 152 71 238 130 87 59 99 77 127
186 38 152 82 223 121 198 26 -16 88 -113 106 -164 41 -118 59 -156 84 -176
36 -28 44 -7 14 32 -12 15 -21 35 -21 46 0 10 -7 33 -16 50 -8 16 -21 49 -28
72 -22 70 -126 206 -158 206 -5 0 -26 -18 -47 -39z"/>
<path d="M1005 1896 c-95 -42 -116 -179 -30 -200 38 -10 108 11 101 30 -3 9
-6 17 -6 20 0 2 -12 -1 -26 -6 -34 -13 -40 -13 -58 6 -39 38 -7 110 54 123 41
8 56 41 18 41 -13 -1 -36 -7 -53 -14z"/>
<path d="M699 1829 c-15 -15 -20 -30 -16 -52 3 -22 -2 -40 -16 -59 -41 -56 19
-103 86 -66 12 6 37 11 55 9 35 -3 41 5 16 23 -14 10 -14 14 0 41 20 38 20 55
0 55 -8 0 -20 -14 -26 -31 -10 -28 -11 -29 -28 -14 -18 16 -18 17 1 36 10 10
19 27 19 37 0 44 -56 56 -91 21z m49 -31 c-4 -27 -28 -36 -28 -10 0 20 8 32
22 32 5 0 8 -10 6 -22z m-9 -92 l23 -24 -22 -7 c-27 -9 -53 14 -44 38 8 23 16
21 43 -7z"/>
<path d="M483 1807 c-53 -8 -63 -13 -63 -30 0 -16 5 -19 30 -13 l30 6 0 -86
c0 -74 2 -85 16 -80 9 3 19 6 22 6 4 0 7 37 7 82 l0 83 28 3 c19 2 27 9 27 23
0 21 -3 21 -97 6z"/>
<path d="M296 1733 c-9 -32 -23 -79 -31 -105 -14 -48 -14 -48 10 -48 18 0 25
7 30 29 5 22 13 30 36 33 35 5 39 2 39 -29 0 -21 4 -24 28 -21 15 2 26 8 24
13 -53 179 -56 185 -88 185 -30 0 -32 -3 -48 -57z m63 -45 c1 -12 -6 -18 -20
-18 -18 0 -20 4 -14 33 4 17 10 36 13 42 6 10 19 -26 21 -57z"/>
<path d="M144 1770 c-87 -35 -82 -176 6 -195 47 -10 89 2 83 25 -4 15 -11 17
-37 13 -41 -6 -66 16 -66 61 0 40 26 66 67 66 26 0 43 14 43 36 0 7 -74 3 -96
-6z"/>
<path d="M1410 1572 l0 -77 45 3 c52 5 65 32 15 32 -30 0 -30 0 -30 60 0 47
-3 60 -15 60 -12 0 -15 -15 -15 -78z"/>
<path d="M1630 1623 c0 -5 7 -31 16 -57 19 -56 43 -59 58 -6 l10 35 5 -35 c9
-54 35 -51 55 6 20 58 20 64 2 64 -8 0 -18 -17 -23 -37 l-10 -38 -8 38 c-5 27
-12 37 -24 35 -8 -2 -17 -12 -19 -23 -7 -44 -15 -50 -21 -15 -4 22 -12 36 -23
38 -10 2 -18 -1 -18 -5z"/>
<path d="M1273 1613 c-7 -3 -13 -11 -13 -19 0 -8 -4 -14 -10 -14 -5 0 -10 -7
-10 -15 0 -8 5 -15 10 -15 6 0 10 -15 10 -34 0 -39 11 -50 40 -41 23 7 27 25
5 25 -10 0 -15 10 -15 29 0 16 6 31 15 35 8 3 15 10 15 17 0 6 -6 9 -14 6 -9
-4 -16 1 -18 12 -2 10 -9 16 -15 14z"/>
<path d="M1525 1610 c-7 -11 -1 -13 33 -10 12 1 22 -3 22 -9 0 -6 -8 -11 -18
-11 -25 0 -42 -19 -42 -47 0 -21 4 -23 48 -20 l47 3 -4 45 c-1 24 -5 47 -8 52
-6 11 -71 9 -78 -3z"/>
<path d="M1153 1563 c-7 -2 -13 -11 -13 -19 0 -11 4 -12 19 -4 43 22 43 2 1
-22 -48 -28 -32 -84 18 -63 9 5 25 7 35 6 13 -2 17 5 17 34 0 63 -28 88 -77
68z"/>
<path d="M1330 1545 c0 -16 17 -19 44 -9 26 10 18 24 -14 24 -20 0 -30 -5 -30
-15z"/>
<path d="M982 1524 c-29 -20 -28 -42 4 -54 28 -11 24 -30 -7 -30 -10 0 -19 -4
-19 -10 0 -5 9 -10 21 -10 58 0 81 52 32 72 l-28 11 24 6 c14 4 26 12 29 19 5
17 -29 15 -56 -4z"/>
<path d="M916 1508 c-3 -7 -8 -26 -12 -43 l-7 -30 -9 38 c-9 34 -30 49 -42 29
-2 -4 5 -29 17 -56 19 -45 19 -49 4 -61 -21 -15 -22 -35 -2 -35 19 0 40 34 65
105 11 32 20 60 20 62 0 9 -31 1 -34 -9z"/>
<path d="M1072 1509 c-13 -5 -21 -13 -18 -18 8 -12 59 2 64 17 4 14 -13 15
-46 1z"/>
<path d="M757 1480 c-18 -14 -27 -31 -27 -50 0 -38 22 -54 65 -46 45 9 45 26
0 26 -19 0 -35 5 -35 10 0 6 14 10 30 10 34 0 49 23 33 49 -15 24 -36 24 -66
1z"/>
<path d="M628 1463 c-27 -4 -28 -7 -28 -59 0 -47 3 -55 18 -52 12 2 18 16 22
48 6 57 24 58 28 3 2 -24 6 -43 10 -43 23 1 30 19 25 63 -6 50 -6 50 -75 40z"/>
<path d="M115 1448 c-19 -51 -45 -133 -45 -140 0 -4 9 -8 20 -8 13 0 20 7 20
20 0 15 7 20 24 20 16 0 27 -7 31 -20 6 -19 25 -26 37 -15 3 3 -6 39 -19 80
-19 59 -29 75 -44 75 -11 0 -22 -6 -24 -12z m34 -70 c1 -10 -6 -18 -15 -18
-12 0 -15 6 -10 23 3 12 6 29 7 37 1 20 17 -18 18 -42z"/>
<path d="M320 1450 c-10 -6 -14 -24 -12 -61 2 -53 14 -79 38 -79 21 0 28 22
10 32 -20 11 -22 58 -1 58 8 0 15 7 15 15 0 8 -6 15 -14 15 -8 0 -16 7 -18 15
-2 10 -7 12 -18 5z"/>
<path d="M543 1453 c-21 -4 -23 -10 -23 -59 0 -41 4 -54 15 -54 11 0 15 11 15
40 0 22 4 40 10 40 5 0 14 9 20 20 11 21 9 22 -37 13z"/>
<path d="M225 1424 c-11 -17 -13 -29 -7 -33 6 -3 12 -22 14 -41 3 -30 7 -35
31 -38 28 -3 38 15 12 24 -17 7 -21 54 -5 54 6 0 10 7 10 15 0 8 -4 15 -10 15
-5 0 -10 7 -10 15 0 23 -16 18 -35 -11z"/>
<path d="M400 1420 c-44 -44 -4 -113 52 -91 27 10 38 29 38 65 0 47 -54 62
-90 26z m55 -36 c0 -19 -6 -30 -16 -32 -21 -4 -32 24 -18 49 14 28 34 18 34
-17z"/>
<path d="M2714 1400 c-33 -13 -74 -69 -74 -100 0 -38 16 -80 41 -106 l20 -22
-58 -26 c-69 -32 -113 -71 -113 -101 0 -23 28 -55 49 -55 7 0 29 -11 49 -25
71 -49 126 -21 128 64 0 25 4 54 8 64 5 11 2 27 -9 43 -9 14 -15 26 -13 27
122 61 140 72 159 103 26 42 20 75 -21 115 -25 26 -35 29 -87 28 -32 0 -67 -4
-79 -9z m121 -25 c46 -18 60 -54 41 -100 -18 -42 -50 -63 -108 -71 -38 -5 -48
-3 -66 16 -11 12 -23 38 -27 57 -8 45 17 83 66 100 45 16 53 16 94 -2z m-100
-265 c0 -8 -10 -16 -22 -18 -15 -2 -23 -10 -23 -23 0 -10 3 -19 8 -19 24 -1
32 -17 21 -48 -12 -36 -14 -36 -56 -21 -23 8 -30 15 -26 29 7 25 -23 38 -48
22 -25 -16 -29 -15 -29 7 0 14 20 31 63 56 63 36 112 43 112 15z"/>
<path d="M2733 1358 c-48 -23 -51 -103 -4 -127 29 -16 73 -13 99 5 87 61 2
169 -95 122z m79 -35 c30 -27 21 -83 -14 -83 -20 0 -68 42 -68 59 0 15 30 41
47 41 9 0 25 -7 35 -17z"/>
<path d="M2293 1180 c-54 -33 -78 -102 -52 -153 32 -61 90 -72 172 -31 104 52
122 93 65 146 -63 59 -129 73 -185 38z m135 -30 c18 -11 37 -31 44 -45 22 -48
-45 -105 -124 -105 -92 0 -116 101 -36 150 42 25 74 25 116 0z"/>
<path d="M2332 1134 c-28 -19 -30 -74 -4 -97 27 -25 75 -21 106 8 32 30 33 49
1 80 -28 29 -70 32 -103 9z m86 -31 c20 -39 -10 -69 -45 -46 -27 18 -30 38 -5
52 25 15 40 13 50 -6z"/>
<path d="M48 1038 c-37 -28 -51 -241 -24 -369 18 -81 63 -189 110 -264 30 -45
36 -65 36 -108 0 -54 26 -112 55 -123 13 -5 12 -10 -4 -33 -19 -27 -71 -126
-71 -136 0 -3 11 -5 25 -5 14 0 25 5 25 11 0 7 16 43 35 80 l35 69 -30 53
c-21 37 -30 67 -30 98 0 33 -9 59 -36 104 -111 183 -158 387 -121 530 11 42
17 50 39 53 40 5 89 -26 175 -109 43 -42 123 -113 177 -158 94 -78 102 -83
135 -77 231 41 458 56 581 37 157 -24 188 -25 233 -5 23 10 44 21 47 24 3 3
37 26 75 51 39 26 110 83 159 128 101 93 144 120 158 99 24 -36 -20 -217 -101
-415 -93 -226 -99 -285 -45 -438 19 -55 38 -108 41 -118 3 -9 14 -17 25 -17
23 0 23 -3 -29 145 -53 152 -50 176 44 412 105 266 137 429 93 473 -19 19 -22
19 -57 5 -48 -20 -90 -52 -188 -145 -44 -41 -123 -101 -175 -132 l-95 -58 -75
17 c-115 26 -446 23 -603 -6 l-119 -21 -71 63 c-39 34 -114 103 -167 153 -52
50 -113 100 -135 112 -56 28 -106 36 -127 20z"/>
<path d="M1285 416 c-70 -31 -104 -117 -77 -195 l11 -31 -57 -1 c-31 -1 -71 0
-87 1 -35 1 -79 -39 -89 -81 -6 -30 25 -79 50 -79 8 0 17 -7 20 -15 9 -24 33
-18 40 10 13 51 -4 62 -58 40 -15 -6 -18 -2 -18 20 0 54 31 82 74 65 15 -5 37
-5 60 2 30 10 39 9 56 -7 11 -10 20 -31 20 -47 0 -25 -3 -28 -27 -26 -26 3
-28 0 -31 -34 -3 -33 0 -38 17 -38 12 0 21 7 21 15 0 8 11 22 25 31 34 22 40
55 20 94 -16 32 -16 33 1 25 87 -35 146 -39 190 -10 62 40 72 160 18 217 -52
55 -118 71 -179 44z m140 -56 c49 -46 55 -122 14 -175 -27 -33 -85 -34 -155
-1 -45 21 -52 29 -58 61 -10 51 10 102 48 126 42 27 117 21 151 -11z"/>
<path d="M1280 339 c-32 -13 -40 -26 -40 -69 0 -43 7 -53 45 -73 88 -45 155
-27 155 41 0 47 -22 80 -66 98 -38 16 -59 17 -94 3z m107 -64 c12 -13 20 -32
18 -42 -2 -10 -4 -21 -4 -25 -2 -15 -67 -8 -97 11 -40 25 -49 56 -21 76 28 20
77 11 104 -20z"/>
<path d="M655 411 c-109 -35 -168 -146 -124 -235 36 -74 116 -86 258 -39 61
20 90 36 105 56 20 27 20 28 1 83 -19 57 -72 116 -121 134 -28 11 -88 12 -119
1z m136 -54 c36 -23 79 -96 79 -133 0 -16 -16 -28 -72 -55 -144 -66 -234 -47
-245 51 -6 60 21 107 77 137 56 30 117 30 161 0z"/>
<path d="M624 311 c-44 -27 -60 -77 -40 -125 18 -43 45 -52 118 -37 120 25
151 80 84 147 -29 29 -41 34 -82 34 -31 0 -61 -7 -80 -19z m135 -45 c30 -32
24 -57 -19 -78 -48 -25 -106 -24 -120 1 -16 30 -12 50 15 76 33 34 93 34 124
1z"/>
</g>
</svg>
