 <svg  version="1.0" xmlns="http://www.w3.org/2000/svg"  width="900.000000pt" height="630.000000pt" viewBox="0 0 900.000000 630.000000"  preserveAspectRatio="xMidYMid meet">  <g transform="translate(0.000000,630.000000) scale(0.100000,-0.100000)" fill="#ffffff" stroke="none"> <path d="M4180 5885 c-19 -8 -53 -14 -75 -15 -22 0 -65 -7 -95 -15 -30 -8 -85 -15 -122 -15 -81 0 -98 -13 -98 -74 0 -51 14 -68 45 -56 13 5 45 10 71 12 l49 3 -4 -244 -3 -244 48 6 c27 3 62 10 78 16 28 11 28 13 22 69 -8 77 -10 407 -3 419 4 6 39 13 78 16 40 3 76 10 81 15 5 5 8 33 6 63 -3 61 -15 68 -78 44z"/> <path d="M3540 5780 c-73 -9 -89 -17 -95 -49 -3 -14 -10 -39 -16 -56 -6 -16 -13 -43 -16 -60 -3 -16 -11 -44 -19 -62 -8 -17 -14 -41 -14 -53 0 -12 -5 -31 -12 -43 -6 -12 -15 -38 -19 -57 -4 -19 -12 -50 -18 -67 -24 -72 -33 -100 -47 -151 -8 -29 -14 -55 -14 -57 0 -12 55 -1 126 25 21 8 44 67 44 114 0 46 17 66 56 66 19 0 51 7 71 15 19 8 39 15 44 15 17 0 39 -33 39 -61 0 -16 6 -45 14 -64 l15 -34 68 6 c84 7 93 14 70 54 -9 17 -17 37 -17 44 0 7 -6 26 -14 42 -17 35 -35 86 -47 138 -6 22 -14 44 -20 50 -5 5 -9 21 -9 35 0 14 -6 34 -14 45 -7 11 -16 34 -18 50 -3 17 -11 46 -18 65 -7 19 -14 41 -16 48 -4 13 -17 13 -104 2z m25 -147 c4 -21 10 -48 16 -61 5 -13 9 -31 9 -40 0 -9 7 -30 15 -46 8 -15 15 -30 15 -31 0 -7 -96 -35 -122 -35 -32 0 -36 19 -13 60 8 14 14 36 15 49 0 14 4 38 10 55 5 17 12 43 15 59 8 40 33 34 40 -10z"/> <path d="M8235 5757 c-70 -42 -162 -121 -176 -152 -5 -11 -18 -33 -29 -50 -11 -16 -22 -37 -26 -45 -3 -8 -10 -24 -16 -34 -6 -11 -14 -31 -18 -45 -5 -14 -18 -51 -30 -81 -12 -30 -26 -71 -30 -90 -4 -19 -13 -48 -18 -65 -24 -70 -36 -112 -43 -150 -8 -43 -22 -99 -45 -181 -8 -28 -14 -66 -14 -85 -1 -19 -6 -44 -13 -55 -14 -25 -254 -205 -312 -234 -5 -3 -37 -23 -70 -45 -33 -21 -80 -50 -105 -64 -68 -36 -92 -50 -125 -71 -16 -10 -91 -48 -165 -85 -74 -36 -142 -71 -150 -76 -8 -5 -22 -12 -30 -15 -15 -5 -51 -21 -113 -48 -95 -42 -119 -42 -277 -4 -25 6 -63 14 -85 18 -22 4 -56 13 -75 20 -61 21 -94 32 -125 40 -53 15 -120 41 -129 51 -6 5 -19 9 -31 9 -12 0 -26 5 -32 11 -6 6 -29 15 -50 19 -21 5 -51 13 -68 18 -96 33 -173 43 -305 39 -140 -3 -179 -12 -235 -54 -28 -20 -30 -26 -30 -86 0 -48 5 -70 18 -84 9 -11 17 -27 17 -35 0 -9 7 -21 15 -28 8 -7 15 -21 15 -31 0 -10 5 -21 11 -24 5 -4 15 -17 20 -28 5 -12 18 -35 29 -52 11 -16 24 -39 30 -50 43 -86 154 -222 289 -355 160 -157 191 -193 191 -219 0 -42 138 -199 206 -234 41 -22 88 -76 101 -117 7 -19 14 -62 18 -95 7 -69 19 -102 87 -240 67 -136 78 -154 170 -280 83 -114 302 -325 337 -325 6 0 11 -4 11 -8 0 -4 24 -20 53 -35 56 -30 77 -41 105 -57 18 -11 26 -14 82 -34 89 -33 108 -39 150 -46 25 -5 58 -13 73 -19 16 -6 99 -12 185 -14 143 -2 159 -4 174 -22 10 -11 17 -24 18 -30 0 -17 64 -137 105 -200 22 -33 42 -64 45 -70 19 -38 161 -234 206 -285 12 -14 55 -63 95 -110 86 -101 241 -257 359 -359 47 -40 96 -83 110 -95 14 -12 54 -44 90 -71 36 -27 70 -53 75 -57 70 -56 227 -168 235 -168 6 0 10 35 10 90 l0 90 -27 -2 c-16 -1 -41 7 -58 17 -48 31 -197 145 -235 180 -19 18 -43 37 -54 42 -17 9 -244 221 -324 303 -52 53 -223 258 -262 315 -19 28 -37 52 -40 55 -14 14 -60 80 -60 86 0 3 -14 22 -30 41 -17 19 -34 48 -37 65 -3 16 -11 32 -18 34 -7 3 -21 24 -31 47 -29 65 -70 117 -125 159 -55 41 -104 58 -165 57 -21 0 -59 2 -84 5 -25 3 -63 7 -85 10 -97 11 -205 40 -282 77 -45 21 -85 39 -87 39 -3 0 -29 15 -58 32 -166 101 -325 260 -422 421 -126 212 -134 228 -171 374 -36 142 -56 175 -181 299 -73 72 -132 141 -169 199 -38 58 -107 139 -200 234 -124 128 -237 264 -259 311 -3 8 -16 32 -29 52 -72 121 -87 151 -93 185 -7 48 15 72 83 84 81 16 278 -18 413 -71 30 -11 73 -28 95 -36 38 -15 102 -35 170 -54 17 -5 44 -13 60 -19 105 -36 229 -64 279 -62 15 1 34 -3 41 -9 17 -14 101 1 168 29 27 12 59 21 72 21 14 0 29 9 35 20 6 11 19 20 29 20 10 0 42 13 72 30 30 16 70 35 89 41 19 6 42 17 50 24 8 7 52 32 97 56 45 24 104 56 130 71 26 15 59 34 73 41 14 7 90 56 170 110 80 53 156 105 170 114 126 85 199 214 230 409 4 28 13 61 19 73 7 12 9 26 6 31 -3 6 1 20 9 32 9 12 16 33 16 45 0 37 79 260 117 332 73 137 107 171 174 171 22 0 40 -9 63 -33 33 -35 174 -226 197 -267 8 -14 20 -32 27 -41 17 -21 72 -168 72 -192 0 -9 24 -72 54 -140 30 -67 57 -138 61 -157 14 -67 73 -164 127 -211 98 -84 118 -87 118 -19 0 43 -3 50 -20 50 -11 0 -20 5 -20 11 0 6 -12 26 -26 44 -42 55 -64 107 -64 148 0 21 -6 51 -13 65 -8 15 -21 42 -30 60 -9 19 -17 39 -17 46 0 7 -5 17 -12 24 -14 14 -37 75 -48 127 -9 47 -27 98 -46 138 -8 16 -14 34 -14 40 0 6 -17 31 -38 56 -36 44 -86 113 -107 149 -28 46 -128 171 -161 202 -62 57 -108 71 -149 47z"/> <path d="M3065 5701 c-33 -10 -77 -25 -97 -34 -41 -19 -158 -123 -158 -141 0 -7 -5 -17 -11 -23 -24 -24 -49 -118 -49 -184 0 -127 61 -212 172 -241 64 -17 66 -17 188 10 70 15 123 41 116 57 -2 7 -8 30 -12 50 -7 41 -26 54 -48 33 -21 -22 -118 -42 -162 -33 -25 4 -50 19 -71 42 -32 33 -33 37 -33 119 0 72 4 90 24 122 48 77 151 129 230 118 43 -7 46 -6 60 23 9 16 16 46 16 66 l0 35 -52 -1 c-29 -1 -80 -9 -113 -18z"/> <path d="M2155 5529 c-4 -5 -17 -14 -30 -19 -12 -5 -39 -29 -60 -54 -34 -42 -37 -51 -37 -108 0 -45 4 -65 16 -74 19 -14 22 -64 3 -64 -23 0 -74 -64 -92 -116 -17 -50 -17 -53 1 -98 27 -67 62 -86 157 -86 73 0 135 17 162 45 31 33 43 37 67 21 29 -19 178 -11 178 10 0 14 -72 74 -89 74 -21 0 -11 42 19 80 17 21 30 44 30 52 0 7 6 22 14 33 7 11 17 39 21 63 7 42 6 42 -23 42 -16 0 -46 -7 -66 -15 -28 -12 -36 -21 -36 -41 0 -35 -32 -124 -45 -124 -12 0 -105 89 -105 101 0 5 13 15 29 23 16 9 43 33 60 55 26 33 31 47 31 94 0 49 -4 59 -31 86 -28 29 -36 31 -99 31 -38 0 -72 -5 -75 -11z m90 -100 c16 -49 -26 -134 -62 -127 -40 7 -54 95 -21 132 21 24 75 20 83 -5z m-47 -310 c34 -33 62 -65 62 -70 0 -12 -84 -49 -110 -49 -10 0 -32 14 -50 30 -28 27 -32 35 -27 66 7 42 32 84 51 84 7 0 40 -27 74 -61z"/> <path d="M1675 5449 c-22 -4 -53 -12 -68 -18 -16 -6 -46 -11 -67 -11 -22 0 -62 -5 -89 -11 -28 -6 -81 -14 -118 -17 l-68 -7 -3 -57 -3 -58 39 0 c22 0 56 7 75 15 20 8 41 15 47 15 7 0 10 -87 10 -256 l0 -256 23 7 c12 3 39 10 60 15 21 4 42 12 46 16 4 5 4 113 1 239 -5 189 -3 232 8 242 7 6 47 15 88 18 l74 7 0 59 c0 32 -3 60 -7 62 -5 2 -26 0 -48 -4z"/> <path d="M943 5350 c-14 -6 -23 -18 -23 -30 0 -12 -5 -31 -12 -43 -6 -12 -15 -38 -19 -57 -4 -19 -12 -50 -18 -67 -6 -18 -16 -48 -22 -65 -6 -18 -15 -49 -19 -68 -4 -19 -13 -50 -19 -67 -6 -18 -16 -48 -22 -65 -6 -18 -14 -50 -19 -71 -4 -21 -13 -44 -19 -50 -6 -6 -11 -17 -11 -24 0 -11 17 -13 72 -11 l71 3 19 65 c10 36 18 75 18 88 0 20 5 22 54 22 30 0 67 5 82 10 40 15 63 -12 73 -84 4 -31 12 -61 18 -67 12 -12 117 -1 138 15 13 10 13 16 -1 56 -8 25 -20 49 -25 54 -5 6 -9 22 -9 36 0 14 -6 34 -14 45 -7 11 -16 34 -18 50 -3 17 -11 46 -18 65 -7 19 -18 51 -25 70 -7 19 -18 51 -25 70 -6 19 -14 46 -17 60 -14 76 -6 70 -91 69 -42 0 -87 -4 -99 -9z m102 -170 c4 -33 11 -62 15 -65 5 -3 12 -26 16 -51 8 -56 0 -64 -73 -64 -49 0 -53 2 -53 24 0 13 7 40 15 59 8 20 15 50 15 67 0 38 26 90 44 90 10 0 16 -19 21 -60z"/> <path d="M450 5313 c-89 -40 -105 -51 -141 -91 -64 -73 -79 -115 -79 -222 0 -74 4 -103 21 -137 26 -53 105 -133 133 -133 12 -1 32 -7 46 -15 15 -8 52 -14 90 -14 68 0 175 28 175 44 -1 6 -5 31 -9 58 -9 51 -24 59 -60 32 -33 -25 -129 -20 -174 9 -64 40 -77 69 -77 167 0 78 2 89 27 121 15 20 44 46 63 58 32 20 46 22 126 18 83 -4 89 -3 95 16 3 12 10 31 17 44 8 17 8 28 0 40 -15 24 -203 28 -253 5z"/> <path d="M4253 4943 c-18 -2 -33 -10 -34 -16 -4 -104 3 -453 10 -460 7 -7 16 -5 26 3 10 8 56 16 121 19 110 6 124 13 124 57 0 36 -19 42 -95 33 -38 -5 -76 -7 -84 -4 -11 5 -13 37 -9 185 5 150 3 180 -9 184 -8 3 -15 5 -16 4 -1 0 -17 -3 -34 -5z"/> <path d="M5273 4878 c-4 -7 -14 -58 -23 -113 -8 -55 -20 -99 -25 -98 -12 2 -34 80 -43 153 l-7 55 -43 3 c-38 3 -43 0 -52 -23 -5 -14 -13 -52 -16 -83 -6 -55 -30 -112 -46 -112 -10 0 -16 32 -21 117 -2 40 -10 80 -17 88 -7 9 -29 15 -52 15 -46 0 -57 -18 -39 -64 7 -17 16 -44 21 -61 5 -16 13 -43 18 -60 6 -16 18 -56 27 -87 l16 -58 43 0 c54 0 66 14 75 87 8 63 39 125 51 101 4 -7 10 -40 13 -73 8 -91 22 -115 68 -115 33 0 41 4 55 33 10 17 21 48 25 67 7 36 18 67 52 157 11 28 17 58 14 67 -8 20 -82 22 -94 4z"/> <path d="M4625 4852 c-37 -8 -75 -33 -75 -48 0 -6 9 -19 20 -29 19 -17 21 -17 53 -1 18 10 47 16 67 14 30 -2 35 -7 35 -28 0 -22 -5 -26 -45 -30 -109 -14 -159 -77 -130 -165 19 -57 84 -72 154 -35 28 16 41 18 51 10 8 -6 29 -10 47 -8 l33 3 -3 100 c-6 194 -17 216 -115 220 -34 2 -75 0 -92 -3z m113 -196 c7 -56 -73 -102 -98 -57 -15 30 2 63 41 77 45 16 53 13 57 -20z"/> <path d="M3810 4823 c-42 -18 -52 -31 -47 -61 3 -17 -3 -27 -25 -38 -38 -20 -37 -65 2 -74 24 -6 25 -8 28 -111 3 -104 3 -105 31 -122 38 -22 69 -21 109 3 49 30 40 74 -18 82 -24 3 -25 6 -28 86 l-3 82 29 0 c35 0 52 16 52 51 0 29 -19 42 -41 28 -29 -18 -39 -10 -39 35 0 25 -3 47 -7 49 -5 2 -24 -2 -43 -10z"/> <path d="M3465 4685 c-16 -7 -38 -16 -47 -19 -22 -7 -24 -58 -4 -75 10 -8 16 -8 25 3 6 7 32 19 56 26 36 10 48 10 60 0 22 -18 18 -38 -7 -45 -77 -20 -102 -32 -133 -62 -45 -44 -52 -120 -15 -155 21 -19 104 -25 115 -9 10 17 65 40 71 30 7 -12 51 -12 74 1 17 9 18 20 14 118 -9 167 -30 202 -124 201 -30 0 -68 -6 -85 -14z m115 -190 c0 -63 -101 -104 -108 -44 -4 33 38 69 79 69 24 0 29 -4 29 -25z"/> <path d="M4057 4670 c-73 -7 -87 -17 -87 -62 0 -25 3 -28 36 -28 42 0 124 19 142 33 17 14 15 54 -4 61 -9 3 -16 5 -17 5 -1 -1 -33 -5 -70 -9z"/> <path d="M2964 4591 c-40 -22 -57 -39 -78 -78 -32 -64 -12 -96 77 -123 61 -18 72 -42 30 -63 -18 -10 -44 -13 -74 -10 -44 5 -46 4 -52 -23 -9 -46 8 -57 77 -49 65 7 108 25 144 61 18 18 24 34 24 70 0 55 -26 83 -77 84 -35 1 -65 21 -65 43 0 20 40 32 74 23 19 -5 29 0 45 20 12 15 21 35 21 45 0 17 -8 19 -57 18 -33 -1 -71 -9 -89 -18z"/> <path d="M2777 4553 c-34 -5 -57 -51 -57 -112 0 -50 -27 -121 -46 -121 -9 0 -14 11 -14 30 0 16 -6 49 -14 72 -8 24 -16 54 -18 68 -2 17 -10 26 -26 28 -30 5 -92 -17 -92 -31 0 -6 14 -41 31 -77 17 -36 37 -81 46 -100 8 -19 21 -48 29 -63 8 -16 14 -36 14 -45 -1 -24 -33 -60 -65 -72 -23 -9 -26 -14 -23 -52 3 -39 6 -43 31 -46 38 -5 115 71 142 138 4 8 12 29 19 45 17 40 36 93 46 130 11 39 29 91 46 133 8 18 14 44 14 57 0 26 -3 27 -63 18z"/> <path d="M3260 4535 c-19 -8 -49 -14 -66 -14 -32 -1 -44 -15 -44 -51 0 -29 27 -39 69 -24 20 7 50 13 67 14 39 0 56 20 52 57 -4 33 -25 38 -78 18z"/> <path d="M2324 4471 c-60 -19 -81 -34 -117 -82 -24 -32 -27 -44 -27 -115 0 -77 1 -81 33 -112 29 -28 40 -32 87 -32 80 0 169 29 177 58 9 38 -9 47 -68 34 -97 -23 -143 -13 -137 29 3 22 9 25 74 30 40 4 88 12 108 19 30 10 36 16 35 38 -3 71 -29 115 -80 136 -30 12 -40 12 -85 -3z m50 -67 c19 -7 22 -53 4 -59 -7 -2 -34 -6 -60 -10 -43 -6 -48 -4 -48 13 0 38 62 72 104 56z"/> <path d="M1955 4400 c-12 -4 -27 -15 -34 -24 -15 -18 -41 -22 -41 -6 0 12 -50 13 -68 2 -9 -6 -13 -52 -15 -168 l-2 -159 27 -3 c15 -2 40 4 57 12 l30 16 -6 84 c-8 110 0 150 33 165 22 10 31 9 51 -4 24 -16 25 -17 18 -124 -5 -72 -4 -111 3 -115 6 -3 32 2 59 12 37 14 47 23 45 38 -1 10 -6 70 -10 133 -8 101 -11 116 -31 133 -24 19 -80 23 -116 8z"/> <path d="M338 4353 c-9 -10 -18 -31 -21 -48 -2 -16 -10 -45 -16 -62 -28 -82 -33 -100 -41 -133 -9 -38 -22 -78 -52 -153 -10 -26 -16 -52 -13 -57 9 -14 99 -12 113 2 7 7 12 31 12 55 0 52 16 63 92 63 l54 0 19 -62 20 -63 45 3 c25 2 49 7 54 12 4 4 -2 34 -14 67 -11 32 -27 78 -34 103 -8 25 -21 70 -30 100 -10 30 -21 71 -25 90 -5 19 -14 50 -21 68 -12 31 -14 32 -69 32 -43 0 -62 -5 -73 -17z m85 -140 c36 -114 30 -137 -35 -131 -30 3 -33 6 -31 33 1 27 18 110 29 143 7 22 21 5 37 -45z"/> <path d="M1668 4343 c-22 -22 -30 -24 -42 -14 -8 7 -29 11 -47 9 l-32 -3 -1 -162 c-1 -100 3 -164 9 -166 6 -2 27 -2 48 1 42 5 40 -1 37 119 -1 45 3 90 9 100 5 11 28 27 49 37 34 16 41 24 45 55 2 20 2 39 0 44 -9 16 -50 6 -75 -20z"/> <path d="M960 4345 c-30 -11 -35 -17 -38 -49 -2 -23 -10 -40 -23 -46 -25 -14 -24 -46 1 -60 18 -10 20 -21 20 -108 1 -60 5 -103 13 -113 29 -38 92 -50 142 -27 41 18 28 78 -16 78 -35 0 -49 28 -49 101 l0 69 29 0 c36 0 63 25 59 54 -2 16 -12 22 -43 26 -39 5 -40 6 -40 44 0 45 -6 48 -55 31z"/> <path d="M703 4322 c-27 -13 -33 -21 -33 -47 0 -24 -6 -35 -26 -43 -35 -16 -31 -63 6 -72 24 -6 25 -8 28 -107 3 -96 4 -103 29 -123 30 -24 99 -27 128 -6 29 21 10 69 -30 76 l-30 5 -3 83 c-3 81 -2 82 21 82 31 0 50 22 45 52 -2 18 -9 23 -33 23 -29 0 -30 2 -33 48 -3 53 -12 56 -69 29z"/> <path d="M1230 4286 c-46 -31 -64 -52 -83 -104 -21 -54 -21 -85 0 -130 24 -50 45 -69 93 -83 62 -19 138 8 185 65 34 41 35 46 35 124 0 80 -1 82 -35 117 -33 33 -40 35 -98 34 -47 0 -70 -6 -97 -23z m115 -62 c22 -14 25 -24 25 -71 0 -71 -29 -113 -77 -113 -28 0 -35 5 -49 38 -13 31 -14 45 -5 82 12 43 42 79 69 80 7 0 24 -7 37 -16z"/> <path d="M8300 4220 c-14 -4 -41 -8 -60 -9 -84 -2 -193 -60 -253 -133 -53 -65 -68 -111 -68 -208 0 -128 36 -223 115 -300 48 -46 58 -77 29 -86 -10 -3 -26 -10 -35 -15 -10 -5 -27 -9 -39 -9 -20 0 -105 -42 -229 -115 -74 -44 -160 -127 -179 -173 -19 -47 -7 -91 41 -144 45 -50 80 -68 130 -68 22 0 46 -14 91 -54 102 -88 188 -120 260 -97 19 7 55 32 79 56 35 34 50 60 68 117 28 86 27 103 -1 158 -24 45 -22 53 26 119 36 49 32 77 -21 145 -41 51 -45 61 -35 82 7 16 19 24 35 24 21 0 92 29 236 98 65 31 69 33 142 105 113 111 136 212 76 333 -37 75 -121 148 -195 170 -49 15 -172 17 -213 4z m115 -70 c3 -5 18 -10 32 -10 69 0 173 -89 192 -165 14 -55 5 -159 -15 -176 -8 -6 -14 -16 -14 -21 0 -16 -74 -107 -88 -108 -7 0 -15 -7 -18 -15 -4 -8 -16 -15 -29 -15 -13 0 -25 -6 -28 -14 -10 -26 -236 -39 -312 -17 -36 10 -44 19 -73 79 -31 62 -46 106 -59 175 -3 15 3 54 12 85 14 44 31 69 72 110 30 28 61 52 69 52 9 0 22 7 30 15 9 9 34 15 59 15 24 0 47 5 50 10 3 6 30 10 60 10 30 0 57 -4 60 -10z m-218 -792 c50 -47 15 -94 -73 -100 -42 -3 -51 -7 -62 -31 -27 -56 -2 -87 83 -106 36 -8 42 -30 21 -76 -9 -18 -16 -42 -16 -53 0 -12 -4 -23 -9 -27 -5 -3 -12 -19 -16 -35 -9 -40 -42 -48 -97 -22 -24 12 -65 28 -91 38 -58 21 -63 27 -43 56 21 30 20 58 -4 88 -15 20 -28 25 -65 25 -40 0 -49 -4 -71 -32 -43 -56 -94 -40 -94 29 0 47 25 72 124 122 39 21 85 46 101 56 17 11 39 24 50 30 11 5 27 14 35 19 46 27 92 40 144 40 48 1 64 -3 83 -21z"/> <path d="M8200 4069 c-170 -91 -171 -302 -3 -396 34 -19 207 -17 223 2 7 8 19 15 26 15 23 0 106 85 122 126 36 92 4 184 -84 240 -52 33 -56 34 -151 33 -75 -1 -106 -6 -133 -20z m198 -85 c74 -44 103 -144 64 -224 -15 -31 -22 -35 -62 -38 -25 -2 -61 1 -80 7 -46 14 -116 81 -122 118 -3 15 -8 35 -12 43 -9 21 28 77 66 100 45 27 93 25 146 -6z"/> <path d="M6980 3581 c-99 -17 -208 -106 -264 -215 -36 -71 -39 -83 -38 -155 1 -98 26 -155 97 -226 91 -91 180 -114 303 -79 54 16 138 57 192 94 14 10 53 31 86 48 62 31 138 105 155 150 32 83 -32 195 -160 278 -24 16 -56 37 -71 46 -82 54 -199 77 -300 59z m196 -86 c10 -8 32 -15 47 -15 15 0 30 -7 33 -15 4 -8 13 -15 21 -15 19 0 133 -116 133 -134 0 -8 7 -16 15 -20 32 -12 18 -70 -32 -137 -63 -81 -65 -84 -85 -92 -10 -3 -18 -11 -18 -17 0 -5 -11 -10 -25 -10 -13 0 -28 -6 -32 -14 -10 -17 -63 -27 -183 -33 -81 -3 -102 -1 -141 16 -73 32 -105 72 -119 146 -13 69 1 165 27 186 7 6 13 16 13 21 0 31 148 125 225 141 44 10 102 6 121 -8z"/> <path d="M7055 3433 c-31 -8 -67 -34 -102 -72 -35 -39 -48 -95 -37 -166 5 -37 15 -53 55 -89 26 -24 62 -46 79 -49 45 -10 154 4 163 19 4 8 17 14 28 14 11 0 22 7 25 15 4 8 11 15 17 15 5 0 25 17 44 38 28 32 33 44 33 88 0 34 -5 56 -15 64 -8 7 -15 16 -15 21 0 11 -62 68 -74 69 -5 0 -17 6 -25 14 -17 15 -142 29 -176 19z m177 -110 c31 -37 40 -78 28 -124 -15 -55 -24 -66 -62 -74 -23 -5 -38 -2 -59 14 -15 12 -33 21 -38 21 -5 0 -19 12 -30 26 -21 27 -28 88 -13 110 27 41 146 59 174 27z"/> <path d="M150 3118 c-49 -14 -70 -36 -70 -73 0 -18 -7 -49 -15 -68 -8 -20 -15 -54 -15 -76 0 -22 -5 -52 -11 -68 -14 -35 -19 -550 -6 -648 4 -38 12 -97 16 -130 4 -34 13 -70 19 -82 7 -12 12 -35 12 -52 0 -17 6 -45 14 -63 19 -47 36 -98 46 -137 5 -18 13 -38 19 -44 6 -6 11 -19 11 -28 0 -10 6 -30 14 -46 8 -15 29 -59 46 -98 18 -38 36 -77 40 -85 5 -8 21 -37 35 -65 14 -27 34 -63 45 -80 11 -16 24 -39 30 -50 31 -58 100 -155 111 -155 15 0 18 -47 8 -120 -11 -84 -1 -198 23 -261 25 -67 101 -154 159 -185 21 -10 28 -19 21 -27 -4 -7 -24 -32 -44 -57 -19 -25 -38 -52 -42 -60 -3 -8 -15 -28 -26 -45 -26 -42 -150 -294 -150 -308 0 -4 32 -7 70 -7 58 0 70 3 70 16 0 25 85 209 120 260 17 24 38 60 46 79 8 19 18 35 23 35 5 0 12 22 16 49 8 57 -13 106 -76 182 -22 26 -39 53 -39 62 0 8 -7 20 -15 27 -8 7 -15 20 -15 29 0 9 -5 22 -11 28 -7 7 -14 72 -18 160 -8 158 -13 178 -81 278 -59 87 -141 235 -181 325 -23 52 -48 104 -54 115 -7 11 -27 65 -45 120 -18 55 -39 116 -46 135 -8 19 -19 58 -25 85 -22 105 -27 132 -43 200 -41 188 -40 405 3 593 11 48 23 103 26 123 8 50 38 85 77 93 18 3 64 -1 102 -9 113 -24 213 -93 397 -275 86 -85 190 -185 230 -222 131 -118 239 -212 279 -243 99 -76 157 -125 217 -181 87 -83 152 -118 217 -115 28 1 66 6 86 11 56 14 142 31 185 36 160 18 195 23 204 28 33 20 627 66 860 66 205 0 566 -27 614 -45 20 -8 53 -15 72 -15 18 0 45 -4 58 -9 24 -9 102 -19 223 -28 52 -4 71 0 125 24 35 16 83 42 106 56 24 15 52 27 62 27 11 0 25 9 31 20 6 11 15 20 20 20 5 0 29 13 52 28 111 74 189 122 198 122 5 0 19 9 29 19 11 11 44 36 73 56 29 19 123 102 208 183 219 209 264 250 355 318 101 75 120 87 174 104 42 13 44 13 62 -8 10 -13 21 -43 25 -68 10 -69 -24 -302 -63 -434 -19 -63 -38 -133 -43 -155 -21 -94 -104 -326 -203 -565 -85 -206 -86 -208 -109 -260 -57 -127 -128 -381 -149 -528 -10 -75 -11 -111 0 -194 7 -57 16 -107 19 -113 8 -13 59 -156 76 -212 6 -23 15 -45 19 -49 4 -4 7 -17 7 -28 0 -12 8 -37 18 -56 10 -19 27 -60 36 -90 10 -30 26 -77 36 -105 10 -27 21 -62 24 -78 6 -26 9 -27 66 -27 65 0 72 8 48 53 -6 12 -15 38 -19 57 -8 38 -24 88 -44 135 -7 17 -15 39 -18 50 -3 11 -15 45 -27 75 -43 112 -52 136 -60 169 -5 18 -13 38 -19 44 -6 6 -11 20 -11 30 0 10 -6 33 -14 50 -26 57 -34 171 -20 286 6 58 17 119 23 134 6 16 11 41 11 56 0 15 4 31 9 37 6 5 14 27 20 49 10 43 26 90 48 143 25 60 42 102 58 137 41 95 70 162 90 215 9 25 23 57 31 72 8 14 14 34 14 45 0 10 7 27 15 37 8 11 15 29 15 41 0 12 5 26 11 32 6 6 14 26 19 44 11 46 30 98 46 131 8 14 14 37 14 50 0 12 7 32 15 42 8 11 15 31 15 44 0 13 5 33 12 45 6 12 15 40 19 62 4 22 11 54 17 70 17 49 32 116 42 185 5 36 14 81 20 100 5 19 10 87 10 151 0 117 -12 168 -53 221 -21 26 -75 36 -132 22 -49 -11 -167 -70 -173 -86 -2 -4 -8 -8 -14 -8 -23 0 -233 -176 -369 -310 -204 -199 -267 -254 -367 -315 -9 -5 -43 -28 -77 -51 -33 -22 -67 -43 -75 -47 -8 -4 -28 -16 -45 -27 -16 -11 -39 -24 -50 -30 -11 -6 -33 -19 -50 -30 -16 -11 -39 -24 -50 -29 -11 -5 -36 -20 -56 -34 -21 -14 -46 -28 -58 -32 -12 -3 -21 -11 -21 -16 0 -14 -55 -11 -86 6 -16 8 -42 15 -59 15 -16 0 -52 7 -79 15 -27 8 -66 15 -87 15 -21 0 -64 7 -96 15 -31 8 -84 15 -117 15 -33 0 -115 7 -181 16 -202 26 -661 13 -1000 -27 -49 -6 -128 -15 -175 -19 -47 -5 -98 -13 -113 -19 -16 -6 -48 -11 -71 -11 -24 0 -65 -7 -92 -15 -27 -8 -63 -15 -80 -15 -17 0 -47 -6 -65 -14 -19 -7 -53 -16 -75 -20 -40 -6 -43 -4 -69 34 -33 47 -123 132 -225 210 -25 19 -85 69 -135 110 -49 42 -103 87 -120 100 -16 14 -119 114 -228 222 -215 214 -292 279 -387 324 -133 64 -262 87 -350 62z"/> <path d="M3970 1269 c-190 -23 -340 -147 -371 -307 -19 -98 -7 -255 26 -337 15 -37 24 -69 21 -72 -3 -3 -34 0 -71 8 -53 10 -77 10 -128 0 -35 -7 -95 -12 -133 -11 -194 5 -198 4 -271 -63 -53 -49 -80 -99 -94 -172 -14 -78 0 -120 61 -180 39 -38 62 -52 98 -60 43 -9 47 -13 50 -43 3 -32 4 -32 56 -32 l52 0 12 58 c21 102 17 127 -24 152 -35 22 -36 22 -77 4 -23 -10 -49 -24 -58 -31 -8 -7 -27 -13 -41 -13 -33 0 -43 36 -33 113 11 90 47 146 108 168 30 10 44 10 94 -6 97 -29 124 -30 185 -1 62 29 129 34 148 11 7 -8 18 -15 24 -15 6 -1 26 -21 45 -46 56 -78 55 -204 -3 -204 -13 0 -31 9 -41 20 -10 11 -30 20 -44 20 -50 -1 -75 -69 -64 -175 l6 -55 53 0 c51 0 54 1 54 26 0 31 17 64 33 64 21 0 123 103 137 139 22 53 13 106 -30 188 -22 41 -40 77 -40 79 0 8 36 4 45 -5 11 -10 69 -33 150 -57 28 -8 65 -20 84 -26 125 -39 300 -3 378 77 112 115 154 305 103 470 -35 112 -123 211 -238 269 -56 28 -168 60 -191 55 -3 -1 -35 -5 -71 -10z m174 -124 c11 -8 26 -15 33 -15 8 0 38 -18 68 -41 93 -70 150 -183 149 -294 -1 -68 -18 -163 -32 -177 -7 -7 -12 -19 -12 -28 0 -21 -74 -100 -93 -100 -8 0 -17 -7 -21 -15 -8 -22 -238 -22 -256 0 -7 8 -28 15 -47 15 -21 0 -36 6 -39 15 -4 9 -19 15 -35 15 -17 0 -32 6 -35 15 -4 8 -16 15 -29 15 -13 0 -25 7 -29 15 -3 8 -12 15 -20 15 -26 0 -76 75 -76 115 0 20 -7 43 -15 51 -10 10 -15 35 -15 73 0 40 5 63 15 71 8 7 15 25 15 41 0 15 7 34 15 43 8 8 15 19 15 24 0 17 88 97 126 115 22 11 50 25 64 32 37 19 229 19 254 0z"/> <path d="M3870 1021 c-75 -20 -111 -41 -137 -79 -15 -23 -18 -45 -16 -146 2 -96 5 -122 18 -128 8 -5 15 -15 15 -22 0 -8 11 -17 25 -20 14 -4 25 -11 25 -16 0 -6 11 -10 25 -10 14 0 28 -7 31 -15 4 -8 18 -15 34 -15 16 0 30 -7 34 -15 3 -10 19 -15 44 -15 23 0 45 -6 52 -15 18 -21 172 -21 190 0 7 8 18 15 25 15 17 0 60 59 69 95 15 60 8 161 -15 205 -47 90 -127 149 -249 182 -79 21 -88 21 -170 -1z m190 -136 c43 -15 108 -74 133 -120 14 -27 18 -115 5 -138 -18 -34 -72 -49 -135 -38 -70 13 -169 49 -184 67 -6 8 -17 14 -23 14 -22 0 -53 44 -65 94 -11 45 -10 50 14 82 15 19 41 41 58 48 40 18 136 13 197 -9z"/> <path d="M2050 1240 c-60 -9 -141 -30 -160 -41 -8 -4 -39 -20 -68 -35 -29 -15 -71 -43 -93 -62 -51 -44 -139 -159 -139 -182 0 -10 -6 -23 -14 -29 -28 -23 -48 -184 -32 -266 23 -123 98 -234 187 -276 107 -51 305 -52 464 0 87 28 223 68 275 81 129 34 240 146 240 243 0 42 -45 189 -75 247 -8 14 -16 32 -20 40 -22 54 -113 147 -200 206 -97 65 -242 95 -365 74z m218 -119 c9 -6 38 -19 63 -31 25 -12 61 -36 80 -53 46 -43 111 -130 125 -167 3 -8 11 -28 19 -45 29 -67 45 -123 47 -164 2 -51 -18 -71 -112 -118 -30 -15 -59 -33 -63 -40 -4 -7 -19 -13 -31 -13 -13 0 -26 -7 -30 -15 -3 -8 -16 -15 -29 -15 -14 0 -30 -7 -37 -15 -7 -8 -27 -15 -45 -15 -18 0 -38 -7 -45 -15 -7 -8 -29 -15 -49 -15 -20 0 -45 -7 -55 -15 -29 -22 -258 -21 -280 0 -8 8 -21 15 -29 15 -8 0 -32 15 -53 34 -34 30 -49 53 -95 148 -15 30 -10 192 6 234 62 156 150 234 335 296 51 18 250 24 278 9z"/> <path d="M2000 981 c-54 -8 -144 -52 -183 -89 -113 -106 -137 -261 -59 -380 26 -41 46 -58 76 -66 14 -3 26 -11 26 -16 0 -17 172 -12 194 5 11 8 41 15 67 15 29 0 51 6 59 15 7 8 27 15 45 15 20 0 35 6 39 15 3 8 18 15 33 15 15 0 37 7 47 15 11 8 28 15 37 15 9 0 29 14 43 31 48 56 30 204 -31 267 -7 7 -18 21 -25 30 -18 24 -94 82 -107 82 -7 0 -22 6 -34 14 -26 17 -163 27 -227 17z m129 -122 c117 -19 191 -91 191 -189 0 -47 -3 -55 -35 -85 -34 -31 -153 -75 -204 -75 -11 0 -23 -4 -26 -10 -9 -15 -108 -12 -148 5 -72 30 -106 150 -64 230 30 58 105 111 177 126 19 4 37 7 40 8 3 0 34 -4 69 -10z"/> </g> </svg> 