<?xml version="1.0" standalone="no"?>
<!DOCTYPE svg PUBLIC "-//W3C//DTD SVG 20010904//EN"
 "http://www.w3.org/TR/2001/REC-SVG-20010904/DTD/svg10.dtd">
<svg version="1.0" xmlns="http://www.w3.org/2000/svg"
 width="900.000000pt" height="630.000000pt" viewBox="0 0 900.000000 630.000000"
 preserveAspectRatio="xMidYMid meet">
<metadata>
Created by potrace 1.10, written by Peter Selinger 2001-2011
</metadata>
<g transform="translate(0.000000,630.000000) scale(0.100000,-0.100000)"
fill="#000000" stroke="none">
<path d="M4490 5840 c-30 -4 -86 -12 -125 -18 -38 -7 -106 -15 -150 -19 l-80
-8 -3 -54 c-4 -70 2 -85 28 -71 25 14 110 29 125 23 9 -3 12 -34 9 -111 -2
-59 -6 -167 -8 -240 l-4 -133 72 3 71 3 1 250 0 250 77 3 c88 3 100 14 95 85
-3 48 -10 50 -108 37z"/>
<path d="M8235 5757 c-70 -42 -162 -121 -176 -152 -5 -11 -18 -33 -29 -50 -11
-16 -22 -37 -26 -45 -3 -8 -10 -24 -16 -34 -6 -11 -14 -31 -18 -45 -5 -14 -18
-51 -30 -81 -12 -30 -26 -71 -30 -90 -4 -19 -13 -48 -18 -65 -24 -70 -36 -112
-43 -150 -8 -43 -22 -99 -45 -181 -8 -28 -14 -66 -14 -85 -1 -19 -6 -44 -13
-55 -14 -25 -254 -205 -312 -234 -5 -3 -37 -23 -70 -45 -33 -21 -80 -50 -105
-64 -68 -36 -92 -50 -125 -71 -16 -10 -91 -48 -165 -85 -74 -36 -142 -71 -150
-76 -8 -5 -22 -12 -30 -15 -15 -5 -51 -21 -113 -48 -95 -42 -119 -42 -277 -4
-25 6 -63 14 -85 18 -22 4 -56 13 -75 20 -61 21 -94 32 -125 40 -53 15 -120
41 -129 51 -6 5 -19 9 -31 9 -12 0 -26 5 -32 11 -6 6 -29 15 -50 19 -21 5 -51
13 -68 18 -96 33 -173 43 -305 39 -140 -3 -179 -12 -235 -54 -28 -20 -30 -26
-30 -86 0 -48 5 -70 18 -84 9 -11 17 -27 17 -35 0 -9 7 -21 15 -28 8 -7 15
-21 15 -31 0 -10 5 -21 11 -24 5 -4 15 -17 20 -28 5 -12 18 -35 29 -52 11 -16
24 -39 30 -50 43 -86 154 -222 289 -355 160 -157 191 -193 191 -219 0 -42 138
-199 206 -234 41 -22 88 -76 101 -117 7 -19 14 -62 18 -95 7 -69 19 -102 87
-240 67 -136 78 -154 170 -280 83 -114 302 -325 337 -325 6 0 11 -4 11 -8 0
-4 24 -20 53 -35 56 -30 77 -41 105 -57 18 -11 26 -14 82 -34 89 -33 108 -39
150 -46 25 -5 58 -13 73 -19 16 -6 99 -12 185 -14 143 -2 159 -4 174 -22 10
-11 17 -24 18 -30 0 -17 64 -137 105 -200 22 -33 42 -64 45 -70 19 -38 161
-234 206 -285 12 -14 55 -63 95 -110 86 -101 241 -257 359 -359 47 -40 96 -83
110 -95 14 -12 54 -44 90 -71 36 -27 70 -53 75 -57 70 -56 227 -168 235 -168
6 0 10 35 10 90 l0 90 -27 -2 c-16 -1 -41 7 -58 17 -48 31 -197 145 -235 180
-19 18 -43 37 -54 42 -17 9 -244 221 -324 303 -52 53 -223 258 -262 315 -19
28 -37 52 -40 55 -14 14 -60 80 -60 86 0 3 -14 22 -30 41 -17 19 -34 48 -37
65 -3 16 -11 32 -18 34 -7 3 -21 24 -31 47 -29 65 -70 117 -125 159 -55 41
-104 58 -165 57 -21 0 -59 2 -84 5 -25 3 -63 7 -85 10 -97 11 -205 40 -282 77
-45 21 -85 39 -87 39 -3 0 -29 15 -58 32 -166 101 -325 260 -422 421 -126 212
-134 228 -171 374 -36 142 -56 175 -181 299 -73 72 -132 141 -169 199 -38 58
-107 139 -200 234 -124 128 -237 264 -259 311 -3 8 -16 32 -29 52 -72 121 -87
151 -93 185 -7 48 15 72 83 84 81 16 278 -18 413 -71 30 -11 73 -28 95 -36 38
-15 102 -35 170 -54 17 -5 44 -13 60 -19 105 -36 229 -64 279 -62 15 1 34 -3
41 -9 17 -14 101 1 168 29 27 12 59 21 72 21 14 0 29 9 35 20 6 11 19 20 29
20 10 0 42 13 72 30 30 16 70 35 89 41 19 6 42 17 50 24 8 7 52 32 97 56 45
24 104 56 130 71 26 15 59 34 73 41 14 7 90 56 170 110 80 53 156 105 170 114
126 85 199 214 230 409 4 28 13 61 19 73 7 12 9 26 6 31 -3 6 1 20 9 32 9 12
16 33 16 45 0 37 79 260 117 332 73 137 107 171 174 171 22 0 40 -9 63 -33 33
-35 174 -226 197 -267 8 -14 20 -32 27 -41 17 -21 72 -168 72 -192 0 -9 24
-72 54 -140 30 -67 57 -138 61 -157 14 -67 73 -164 127 -211 98 -84 118 -87
118 -19 0 43 -3 50 -20 50 -11 0 -20 5 -20 11 0 6 -12 26 -26 44 -42 55 -64
107 -64 148 0 21 -6 51 -13 65 -8 15 -21 42 -30 60 -9 19 -17 39 -17 46 0 7
-5 17 -12 24 -14 14 -37 75 -48 127 -9 47 -27 98 -46 138 -8 16 -14 34 -14 40
0 6 -17 31 -38 56 -36 44 -86 113 -107 149 -28 46 -128 171 -161 202 -62 57
-108 71 -149 47z"/>
<path d="M3745 5728 c-174 -69 -271 -259 -222 -438 21 -76 49 -115 109 -153
36 -23 193 -24 222 -2 11 8 28 15 38 15 26 0 131 108 156 160 34 72 45 166 29
243 -35 163 -175 237 -332 175z m150 -122 c49 -51 64 -142 39 -232 -28 -96
-83 -146 -162 -146 -72 0 -122 71 -122 176 0 77 26 141 76 190 51 49 128 55
169 12z"/>
<path d="M3425 5675 c-16 -8 -44 -14 -61 -15 -42 0 -53 -17 -172 -248 -27 -51
-36 -61 -47 -52 -11 9 -13 37 -8 137 l6 126 -24 -8 c-13 -4 -41 -9 -62 -12
-20 -3 -40 -9 -43 -14 -7 -12 -7 -586 0 -598 4 -6 18 -6 39 0 17 5 44 9 59 9
l28 0 0 134 c0 126 1 135 20 141 39 13 80 -5 105 -46 14 -21 25 -44 25 -51 1
-7 9 -38 20 -68 20 -60 11 -56 120 -52 44 2 50 5 50 23 0 12 -8 38 -19 58 -10
20 -26 56 -36 81 -40 104 -72 140 -124 140 -12 0 -21 6 -21 13 0 8 42 70 93
138 102 135 120 163 110 173 -9 9 -24 6 -58 -9z"/>
<path d="M2412 5487 c-62 -15 -136 -83 -152 -142 -11 -38 -10 -53 1 -87 7 -22
19 -42 26 -45 23 -9 14 -31 -23 -60 -56 -42 -84 -94 -84 -154 0 -62 24 -101
82 -130 65 -33 178 -12 256 48 32 24 62 25 62 2 0 -9 19 -10 69 -5 38 3 76 9
85 12 29 11 17 38 -25 58 -53 24 -70 58 -43 89 11 12 28 40 38 62 10 22 25 53
32 68 14 29 18 69 9 79 -6 6 -100 -14 -110 -24 -4 -4 -15 -37 -25 -75 -22 -85
-39 -90 -98 -34 -39 37 -52 61 -34 61 4 0 24 15 45 34 43 38 77 98 77 136 0
42 -43 95 -88 108 -44 13 -41 13 -100 -1z m51 -91 c24 -19 21 -75 -6 -108 -32
-38 -58 -39 -75 -4 -20 40 -6 96 28 113 31 16 31 16 53 -1z m-61 -303 c24 -21
49 -44 56 -50 7 -7 18 -13 23 -13 5 0 9 -6 9 -13 0 -25 -37 -48 -86 -53 -65
-8 -104 20 -104 73 0 34 32 93 51 93 5 0 28 -17 51 -37z"/>
<path d="M1867 5390 c-27 -5 -62 -13 -79 -19 -17 -6 -48 -11 -69 -11 -21 0
-71 -5 -111 -11 -130 -20 -118 -12 -118 -79 0 -57 1 -60 24 -60 13 0 40 7 59
15 20 8 51 15 68 15 l31 0 -6 -62 c-3 -35 -7 -144 -8 -243 l-2 -180 27 1 c15
0 45 1 67 2 l40 2 2 253 3 252 77 3 c90 3 101 14 96 85 -3 48 -14 52 -101 37z"/>
<path d="M1063 5269 c-68 -33 -120 -85 -155 -158 -19 -39 -23 -62 -22 -151 0
-90 3 -111 23 -150 61 -117 184 -166 306 -122 142 51 192 108 230 264 18 74
18 78 0 145 -26 96 -61 142 -142 185 -55 30 -164 24 -240 -13z m193 -105 c41
-52 54 -94 54 -168 0 -41 -4 -77 -9 -80 -5 -3 -12 -18 -15 -32 -4 -14 -23 -41
-43 -60 -32 -31 -42 -34 -94 -34 -51 0 -60 3 -81 29 -14 15 -33 54 -43 87 -17
56 -17 60 0 131 18 74 53 124 100 144 34 15 114 4 131 -17z"/>
<path d="M732 5261 c-41 -7 -62 -24 -82 -66 -6 -11 -19 -33 -30 -50 -10 -16
-28 -48 -40 -70 -35 -66 -56 -89 -74 -82 -14 5 -16 16 -11 54 3 27 6 82 8 123
l2 75 -50 1 c-87 2 -80 30 -80 -303 0 -164 3 -300 6 -303 4 -3 35 -3 68 -2
l62 4 -7 129 c-8 141 -5 149 53 134 33 -8 93 -72 93 -99 1 -12 7 -32 15 -46 8
-14 14 -37 15 -51 0 -15 8 -36 18 -47 15 -19 25 -20 85 -15 76 7 78 10 43 76
-13 25 -26 55 -29 68 -21 89 -56 142 -113 170 -40 19 -43 23 -32 39 35 46 118
149 161 198 26 30 47 59 47 64 0 9 -65 9 -128 -1z"/>
<path d="M2935 4551 l-30 -6 0 -148 0 -148 45 3 45 3 3 144 c2 109 -1 146 -10
153 -7 4 -15 7 -18 7 -3 -1 -18 -4 -35 -8z"/>
<path d="M2635 4491 l-30 -6 -3 -148 -3 -147 27 0 c33 0 130 27 170 47 39 20
74 71 74 109 0 20 -10 39 -29 58 -25 24 -36 27 -68 23 -21 -2 -48 -8 -60 -12
-20 -6 -22 -3 -25 36 -3 46 -8 50 -53 40z m143 -162 c4 -30 -13 -46 -56 -55
-32 -6 -32 -6 -32 33 0 49 5 55 50 51 29 -3 35 -7 38 -29z"/>
<path d="M2500 4462 c-14 -2 -47 -10 -74 -18 -27 -8 -66 -14 -87 -14 -29 0
-38 -4 -42 -21 -10 -37 2 -49 47 -47 l41 3 -3 -103 c-4 -115 -1 -120 65 -107
l36 6 -6 104 c-6 115 -1 132 48 137 24 2 31 8 33 29 3 29 -13 37 -58 31z"/>
<path d="M2119 4400 c-49 -6 -99 -33 -99 -53 0 -6 5 -19 10 -27 8 -13 13 -13
41 3 17 9 46 17 66 17 52 0 40 -30 -22 -51 -67 -23 -115 -70 -115 -112 0 -36
20 -71 51 -87 20 -11 99 5 99 20 0 4 22 8 49 8 74 0 75 0 67 116 -10 158 -29
179 -147 166z m61 -177 c0 -36 -27 -63 -62 -63 -24 0 -28 4 -28 27 0 36 27 63
62 63 24 0 28 -4 28 -27z"/>
<path d="M1878 4352 c-16 -10 -28 -20 -28 -23 0 -4 -9 -28 -21 -53 -17 -39
-23 -45 -35 -35 -9 7 -13 27 -12 53 3 39 2 41 -27 44 -53 4 -56 -2 -57 -157 0
-78 2 -144 5 -147 2 -3 23 -2 46 2 l42 7 -3 61 c-3 59 -2 61 21 61 19 0 30
-11 50 -50 17 -32 32 -50 44 -49 61 3 67 5 67 22 0 10 -7 27 -15 38 -8 10 -15
26 -15 36 0 9 -13 28 -30 41 -16 14 -30 30 -30 36 0 5 20 31 45 58 25 26 45
53 45 60 0 18 -59 15 -92 -5z"/>
<path d="M1428 4290 c-20 -11 -48 -35 -62 -53 -22 -29 -26 -44 -26 -104 0 -56
4 -76 21 -96 29 -38 88 -53 142 -38 66 20 101 52 121 113 25 72 16 117 -31
163 -31 30 -43 35 -82 35 -26 -1 -62 -10 -83 -20z m102 -67 c31 -27 28 -100
-5 -136 -29 -30 -52 -34 -81 -13 -15 11 -19 26 -18 71 0 48 4 60 25 76 30 23
53 24 79 2z"/>
<path d="M1060 4251 c-43 -6 -45 -7 -44 -38 0 -18 1 -85 2 -148 l2 -115 75 0
c77 0 131 17 167 53 25 24 24 89 -2 112 -11 10 -20 23 -20 29 0 6 9 17 20 24
27 16 26 57 -2 76 -23 17 -106 19 -198 7z m114 -47 c26 -10 18 -42 -13 -59
-36 -18 -61 -10 -61 19 0 38 32 56 74 40z m16 -123 c5 -11 10 -24 10 -30 0
-20 -33 -41 -66 -41 -33 0 -34 1 -34 39 0 41 8 49 52 50 17 1 31 -6 38 -18z"/>
<path d="M783 4223 l-83 -4 0 -63 c0 -69 -19 -147 -42 -170 -15 -15 -33 -131
-22 -147 3 -5 21 -9 40 -9 l34 0 0 50 c0 32 5 52 13 54 6 3 47 7 89 10 l77 6
3 -48 c3 -45 4 -47 37 -50 18 -2 38 1 43 6 5 5 6 39 2 77 -6 55 -11 69 -27 73
-18 5 -19 13 -16 111 l4 106 -35 1 c-19 0 -72 -1 -117 -3z m65 -137 c3 -77 -2
-86 -56 -86 l-33 0 7 68 c8 92 9 94 46 90 l33 -3 3 -69z"/>
<path d="M8300 4220 c-14 -4 -41 -8 -60 -9 -84 -2 -193 -60 -253 -133 -53 -65
-68 -111 -68 -208 0 -128 36 -223 115 -300 48 -46 58 -77 29 -86 -10 -3 -26
-10 -35 -15 -10 -5 -27 -9 -39 -9 -20 0 -105 -42 -229 -115 -74 -44 -160 -127
-179 -173 -19 -47 -7 -91 41 -144 45 -50 80 -68 130 -68 22 0 46 -14 91 -54
102 -88 188 -120 260 -97 19 7 55 32 79 56 35 34 50 60 68 117 28 86 27 103
-1 158 -24 45 -22 53 26 119 36 49 32 77 -21 145 -41 51 -45 61 -35 82 7 16
19 24 35 24 21 0 92 29 236 98 65 31 69 33 142 105 113 111 136 212 76 333
-37 75 -121 148 -195 170 -49 15 -172 17 -213 4z m115 -70 c3 -5 18 -10 32
-10 69 0 173 -89 192 -165 14 -55 5 -159 -15 -176 -8 -6 -14 -16 -14 -21 0
-16 -74 -107 -88 -108 -7 0 -15 -7 -18 -15 -4 -8 -16 -15 -29 -15 -13 0 -25
-6 -28 -14 -10 -26 -236 -39 -312 -17 -36 10 -44 19 -73 79 -31 62 -46 106
-59 175 -3 15 3 54 12 85 14 44 31 69 72 110 30 28 61 52 69 52 9 0 22 7 30
15 9 9 34 15 59 15 24 0 47 5 50 10 3 6 30 10 60 10 30 0 57 -4 60 -10z m-218
-792 c50 -47 15 -94 -73 -100 -42 -3 -51 -7 -62 -31 -27 -56 -2 -87 83 -106
36 -8 42 -30 21 -76 -9 -18 -16 -42 -16 -53 0 -12 -4 -23 -9 -27 -5 -3 -12
-19 -16 -35 -9 -40 -42 -48 -97 -22 -24 12 -65 28 -91 38 -58 21 -63 27 -43
56 21 30 20 58 -4 88 -15 20 -28 25 -65 25 -40 0 -49 -4 -71 -32 -43 -56 -94
-40 -94 29 0 47 25 72 124 122 39 21 85 46 101 56 17 11 39 24 50 30 11 5 27
14 35 19 46 27 92 40 144 40 48 1 64 -3 83 -21z"/>
<path d="M8200 4069 c-170 -91 -171 -302 -3 -396 34 -19 207 -17 223 2 7 8 19
15 26 15 23 0 106 85 122 126 36 92 4 184 -84 240 -52 33 -56 34 -151 33 -75
-1 -106 -6 -133 -20z m198 -85 c74 -44 103 -144 64 -224 -15 -31 -22 -35 -62
-38 -25 -2 -61 1 -80 7 -46 14 -116 81 -122 118 -3 15 -8 35 -12 43 -9 21 28
77 66 100 45 27 93 25 146 -6z"/>
<path d="M367 4205 c-11 -8 -17 -23 -15 -37 3 -24 3 -24 92 -11 26 3 41 1 46
-7 15 -25 -1 -38 -55 -45 -90 -11 -135 -76 -100 -142 24 -45 48 -56 99 -48 22
3 66 7 96 8 l55 2 3 114 3 114 -33 34 c-30 31 -35 33 -102 33 -45 -1 -78 -6
-89 -15z m138 -145 c11 -18 -6 -70 -27 -81 -26 -14 -68 3 -68 28 0 41 76 83
95 53z"/>
<path d="M6980 3581 c-99 -17 -208 -106 -264 -215 -36 -71 -39 -83 -38 -155 1
-98 26 -155 97 -226 91 -91 180 -114 303 -79 54 16 138 57 192 94 14 10 53 31
86 48 62 31 138 105 155 150 32 83 -32 195 -160 278 -24 16 -56 37 -71 46 -82
54 -199 77 -300 59z m196 -86 c10 -8 32 -15 47 -15 15 0 30 -7 33 -15 4 -8 13
-15 21 -15 19 0 133 -116 133 -134 0 -8 7 -16 15 -20 32 -12 18 -70 -32 -137
-63 -81 -65 -84 -85 -92 -10 -3 -18 -11 -18 -17 0 -5 -11 -10 -25 -10 -13 0
-28 -6 -32 -14 -10 -17 -63 -27 -183 -33 -81 -3 -102 -1 -141 16 -73 32 -105
72 -119 146 -13 69 1 165 27 186 7 6 13 16 13 21 0 31 148 125 225 141 44 10
102 6 121 -8z"/>
<path d="M7055 3433 c-31 -8 -67 -34 -102 -72 -35 -39 -48 -95 -37 -166 5 -37
15 -53 55 -89 26 -24 62 -46 79 -49 45 -10 154 4 163 19 4 8 17 14 28 14 11 0
22 7 25 15 4 8 11 15 17 15 5 0 25 17 44 38 28 32 33 44 33 88 0 34 -5 56 -15
64 -8 7 -15 16 -15 21 0 11 -62 68 -74 69 -5 0 -17 6 -25 14 -17 15 -142 29
-176 19z m177 -110 c31 -37 40 -78 28 -124 -15 -55 -24 -66 -62 -74 -23 -5
-38 -2 -59 14 -15 12 -33 21 -38 21 -5 0 -19 12 -30 26 -21 27 -28 88 -13 110
27 41 146 59 174 27z"/>
<path d="M150 3118 c-49 -14 -70 -36 -70 -73 0 -18 -7 -49 -15 -68 -8 -20 -15
-54 -15 -76 0 -22 -5 -52 -11 -68 -14 -35 -19 -550 -6 -648 4 -38 12 -97 16
-130 4 -34 13 -70 19 -82 7 -12 12 -35 12 -52 0 -17 6 -45 14 -63 19 -47 36
-98 46 -137 5 -18 13 -38 19 -44 6 -6 11 -19 11 -28 0 -10 6 -30 14 -46 8 -15
29 -59 46 -98 18 -38 36 -77 40 -85 5 -8 21 -37 35 -65 14 -27 34 -63 45 -80
11 -16 24 -39 30 -50 31 -58 100 -155 111 -155 15 0 18 -47 8 -120 -11 -84 -1
-198 23 -261 25 -67 101 -154 159 -185 21 -10 28 -19 21 -27 -4 -7 -24 -32
-44 -57 -19 -25 -38 -52 -42 -60 -3 -8 -15 -28 -26 -45 -26 -42 -150 -294
-150 -308 0 -4 32 -7 70 -7 58 0 70 3 70 16 0 25 85 209 120 260 17 24 38 60
46 79 8 19 18 35 23 35 5 0 12 22 16 49 8 57 -13 106 -76 182 -22 26 -39 53
-39 62 0 8 -7 20 -15 27 -8 7 -15 20 -15 29 0 9 -5 22 -11 28 -7 7 -14 72 -18
160 -8 158 -13 178 -81 278 -59 87 -141 235 -181 325 -23 52 -48 104 -54 115
-7 11 -27 65 -45 120 -18 55 -39 116 -46 135 -8 19 -19 58 -25 85 -22 105 -27
132 -43 200 -41 188 -40 405 3 593 11 48 23 103 26 123 8 50 38 85 77 93 18 3
64 -1 102 -9 113 -24 213 -93 397 -275 86 -85 190 -185 230 -222 131 -118 239
-212 279 -243 99 -76 157 -125 217 -181 87 -83 152 -118 217 -115 28 1 66 6
86 11 56 14 142 31 185 36 160 18 195 23 204 28 33 20 627 66 860 66 205 0
566 -27 614 -45 20 -8 53 -15 72 -15 18 0 45 -4 58 -9 24 -9 102 -19 223 -28
52 -4 71 0 125 24 35 16 83 42 106 56 24 15 52 27 62 27 11 0 25 9 31 20 6 11
15 20 20 20 5 0 29 13 52 28 111 74 189 122 198 122 5 0 19 9 29 19 11 11 44
36 73 56 29 19 123 102 208 183 219 209 264 250 355 318 101 75 120 87 174
104 42 13 44 13 62 -8 10 -13 21 -43 25 -68 10 -69 -24 -302 -63 -434 -19 -63
-38 -133 -43 -155 -21 -94 -104 -326 -203 -565 -85 -206 -86 -208 -109 -260
-57 -127 -128 -381 -149 -528 -10 -75 -11 -111 0 -194 7 -57 16 -107 19 -113
8 -13 59 -156 76 -212 6 -23 15 -45 19 -49 4 -4 7 -17 7 -28 0 -12 8 -37 18
-56 10 -19 27 -60 36 -90 10 -30 26 -77 36 -105 10 -27 21 -62 24 -78 6 -26 9
-27 66 -27 65 0 72 8 48 53 -6 12 -15 38 -19 57 -8 38 -24 88 -44 135 -7 17
-15 39 -18 50 -3 11 -15 45 -27 75 -43 112 -52 136 -60 169 -5 18 -13 38 -19
44 -6 6 -11 20 -11 30 0 10 -6 33 -14 50 -26 57 -34 171 -20 286 6 58 17 119
23 134 6 16 11 41 11 56 0 15 4 31 9 37 6 5 14 27 20 49 10 43 26 90 48 143
25 60 42 102 58 137 41 95 70 162 90 215 9 25 23 57 31 72 8 14 14 34 14 45 0
10 7 27 15 37 8 11 15 29 15 41 0 12 5 26 11 32 6 6 14 26 19 44 11 46 30 98
46 131 8 14 14 37 14 50 0 12 7 32 15 42 8 11 15 31 15 44 0 13 5 33 12 45 6
12 15 40 19 62 4 22 11 54 17 70 17 49 32 116 42 185 5 36 14 81 20 100 5 19
10 87 10 151 0 117 -12 168 -53 221 -21 26 -75 36 -132 22 -49 -11 -167 -70
-173 -86 -2 -4 -8 -8 -14 -8 -23 0 -233 -176 -369 -310 -204 -199 -267 -254
-367 -315 -9 -5 -43 -28 -77 -51 -33 -22 -67 -43 -75 -47 -8 -4 -28 -16 -45
-27 -16 -11 -39 -24 -50 -30 -11 -6 -33 -19 -50 -30 -16 -11 -39 -24 -50 -29
-11 -5 -36 -20 -56 -34 -21 -14 -46 -28 -58 -32 -12 -3 -21 -11 -21 -16 0 -14
-55 -11 -86 6 -16 8 -42 15 -59 15 -16 0 -52 7 -79 15 -27 8 -66 15 -87 15
-21 0 -64 7 -96 15 -31 8 -84 15 -117 15 -33 0 -115 7 -181 16 -202 26 -661
13 -1000 -27 -49 -6 -128 -15 -175 -19 -47 -5 -98 -13 -113 -19 -16 -6 -48
-11 -71 -11 -24 0 -65 -7 -92 -15 -27 -8 -63 -15 -80 -15 -17 0 -47 -6 -65
-14 -19 -7 -53 -16 -75 -20 -40 -6 -43 -4 -69 34 -33 47 -123 132 -225 210
-25 19 -85 69 -135 110 -49 42 -103 87 -120 100 -16 14 -119 114 -228 222
-215 214 -292 279 -387 324 -133 64 -262 87 -350 62z"/>
<path d="M3970 1269 c-190 -23 -340 -147 -371 -307 -19 -98 -7 -255 26 -337
15 -37 24 -69 21 -72 -3 -3 -34 0 -71 8 -53 10 -77 10 -128 0 -35 -7 -95 -12
-133 -11 -194 5 -198 4 -271 -63 -53 -49 -80 -99 -94 -172 -14 -78 0 -120 61
-180 39 -38 62 -52 98 -60 43 -9 47 -13 50 -43 3 -32 4 -32 56 -32 l52 0 12
58 c21 102 17 127 -24 152 -35 22 -36 22 -77 4 -23 -10 -49 -24 -58 -31 -8 -7
-27 -13 -41 -13 -33 0 -43 36 -33 113 11 90 47 146 108 168 30 10 44 10 94 -6
97 -29 124 -30 185 -1 62 29 129 34 148 11 7 -8 18 -15 24 -15 6 -1 26 -21 45
-46 56 -78 55 -204 -3 -204 -13 0 -31 9 -41 20 -10 11 -30 20 -44 20 -50 -1
-75 -69 -64 -175 l6 -55 53 0 c51 0 54 1 54 26 0 31 17 64 33 64 21 0 123 103
137 139 22 53 13 106 -30 188 -22 41 -40 77 -40 79 0 8 36 4 45 -5 11 -10 69
-33 150 -57 28 -8 65 -20 84 -26 125 -39 300 -3 378 77 112 115 154 305 103
470 -35 112 -123 211 -238 269 -56 28 -168 60 -191 55 -3 -1 -35 -5 -71 -10z
m174 -124 c11 -8 26 -15 33 -15 8 0 38 -18 68 -41 93 -70 150 -183 149 -294
-1 -68 -18 -163 -32 -177 -7 -7 -12 -19 -12 -28 0 -21 -74 -100 -93 -100 -8 0
-17 -7 -21 -15 -8 -22 -238 -22 -256 0 -7 8 -28 15 -47 15 -21 0 -36 6 -39 15
-4 9 -19 15 -35 15 -17 0 -32 6 -35 15 -4 8 -16 15 -29 15 -13 0 -25 7 -29 15
-3 8 -12 15 -20 15 -26 0 -76 75 -76 115 0 20 -7 43 -15 51 -10 10 -15 35 -15
73 0 40 5 63 15 71 8 7 15 25 15 41 0 15 7 34 15 43 8 8 15 19 15 24 0 17 88
97 126 115 22 11 50 25 64 32 37 19 229 19 254 0z"/>
<path d="M3870 1021 c-75 -20 -111 -41 -137 -79 -15 -23 -18 -45 -16 -146 2
-96 5 -122 18 -128 8 -5 15 -15 15 -22 0 -8 11 -17 25 -20 14 -4 25 -11 25
-16 0 -6 11 -10 25 -10 14 0 28 -7 31 -15 4 -8 18 -15 34 -15 16 0 30 -7 34
-15 3 -10 19 -15 44 -15 23 0 45 -6 52 -15 18 -21 172 -21 190 0 7 8 18 15 25
15 17 0 60 59 69 95 15 60 8 161 -15 205 -47 90 -127 149 -249 182 -79 21 -88
21 -170 -1z m190 -136 c43 -15 108 -74 133 -120 14 -27 18 -115 5 -138 -18
-34 -72 -49 -135 -38 -70 13 -169 49 -184 67 -6 8 -17 14 -23 14 -22 0 -53 44
-65 94 -11 45 -10 50 14 82 15 19 41 41 58 48 40 18 136 13 197 -9z"/>
<path d="M2050 1240 c-60 -9 -141 -30 -160 -41 -8 -4 -39 -20 -68 -35 -29 -15
-71 -43 -93 -62 -51 -44 -139 -159 -139 -182 0 -10 -6 -23 -14 -29 -28 -23
-48 -184 -32 -266 23 -123 98 -234 187 -276 107 -51 305 -52 464 0 87 28 223
68 275 81 129 34 240 146 240 243 0 42 -45 189 -75 247 -8 14 -16 32 -20 40
-22 54 -113 147 -200 206 -97 65 -242 95 -365 74z m218 -119 c9 -6 38 -19 63
-31 25 -12 61 -36 80 -53 46 -43 111 -130 125 -167 3 -8 11 -28 19 -45 29 -67
45 -123 47 -164 2 -51 -18 -71 -112 -118 -30 -15 -59 -33 -63 -40 -4 -7 -19
-13 -31 -13 -13 0 -26 -7 -30 -15 -3 -8 -16 -15 -29 -15 -14 0 -30 -7 -37 -15
-7 -8 -27 -15 -45 -15 -18 0 -38 -7 -45 -15 -7 -8 -29 -15 -49 -15 -20 0 -45
-7 -55 -15 -29 -22 -258 -21 -280 0 -8 8 -21 15 -29 15 -8 0 -32 15 -53 34
-34 30 -49 53 -95 148 -15 30 -10 192 6 234 62 156 150 234 335 296 51 18 250
24 278 9z"/>
<path d="M2000 981 c-54 -8 -144 -52 -183 -89 -113 -106 -137 -261 -59 -380
26 -41 46 -58 76 -66 14 -3 26 -11 26 -16 0 -17 172 -12 194 5 11 8 41 15 67
15 29 0 51 6 59 15 7 8 27 15 45 15 20 0 35 6 39 15 3 8 18 15 33 15 15 0 37
7 47 15 11 8 28 15 37 15 9 0 29 14 43 31 48 56 30 204 -31 267 -7 7 -18 21
-25 30 -18 24 -94 82 -107 82 -7 0 -22 6 -34 14 -26 17 -163 27 -227 17z m129
-122 c117 -19 191 -91 191 -189 0 -47 -3 -55 -35 -85 -34 -31 -153 -75 -204
-75 -11 0 -23 -4 -26 -10 -9 -15 -108 -12 -148 5 -72 30 -106 150 -64 230 30
58 105 111 177 126 19 4 37 7 40 8 3 0 34 -4 69 -10z"/>
</g>
</svg>
